<svg xmlns="http://www.w3.org/2000/svg" xmlns:xlink="http://www.w3.org/1999/xlink" width="241.39" height="57.387" viewBox="0 0 241.39 57.387">
  <defs>
    <clipPath id="clip-path">
      <path id="Path_5" data-name="Path 5" d="M19.487,27.121l6.052-3.49,6.052,3.49L25.539,30.6ZM15.41,9.48l-4.279,2.47L5.29,15.366V25.679l2.489,1.442,3.343,1.938L13.628,30.5l1.782,1.019,10.1,5.841,10.1-5.841,1.782-1.029,2.525,1.451v3.425l-7.2,4.16-7.2,4.16-7.181-4.16-1.57-.918-5.638-3.251L14.014,33.7l-5.85-3.361L5.29,32v6.75l5.841,3.379L15.41,44.6l10.1,5.841,10.1-5.841,4.307-2.47,5.85-3.379V28.572l-2.5-1.451L39.92,25.192,37.44,23.75l-1.782-1.029-10.1-5.85-10.1,5.85L13.683,23.75l-2.553-1.414v-3.6l7.209-4.151,7.2-4.188,7.2,4.16,2.755,1.57,4.426,2.608v.184L37.266,20.5l5.85,3.37,2.672-1.534v-6.97L39.92,11.987,35.659,9.48l-10.1-5.85Z" transform="translate(-5.29 -3.63)" fill="none"/>
    </clipPath>
    <clipPath id="clip-path-2">
      <path id="Path_6" data-name="Path 6" d="M171.233,35.415H161.48v2.9h18.651v-2.9Zm-1.377-8.9H161.48v2.893h18.651V26.517Zm-8.375-7.8v2.893h18.651V18.72Z" transform="translate(-161.48 -18.72)" fill="none"/>
    </clipPath>
  </defs>
  <g id="Group_36" data-name="Group 36" transform="translate(-337 -35)">
    <path id="Path_1" data-name="Path 1" d="M65.757,38.317v-2.9H81.543c1.515,0,2.268-.6,2.268-1.837V31.136c0-1.212-.753-1.837-2.268-1.837H70.854a8.752,8.752,0,0,1-2.626-.349,4.784,4.784,0,0,1-1.763-.973,3.673,3.673,0,0,1-.992-1.488,5.813,5.813,0,0,1-.312-1.928V23.449a5.758,5.758,0,0,1,.312-1.919,3.545,3.545,0,0,1,.992-1.488,4.656,4.656,0,0,1,1.763-.973,8.752,8.752,0,0,1,2.626-.349H86.217v2.893H70.854c-1.506,0-2.268.606-2.268,1.837v1.194c0,1.212.762,1.837,2.268,1.837H81.543a8.724,8.724,0,0,1,2.626.34,4.656,4.656,0,0,1,1.763.983,3.545,3.545,0,0,1,.992,1.488,5.51,5.51,0,0,1,.312,1.919v2.369a5.51,5.51,0,0,1-.331,1.928,3.673,3.673,0,0,1-.992,1.5,4.766,4.766,0,0,1-1.763.973,8.706,8.706,0,0,1-2.626.349Z" transform="translate(326.82 30.138)" fill="#fff" fill-rule="evenodd"/>
    <rect id="Rectangle_29" data-name="Rectangle 29" width="3.425" height="19.597" transform="translate(425.499 48.857)" fill="#fff"/>
    <path id="Path_2" data-name="Path 2" d="M142.916,38.317V24.588L133.7,38.317h-2.81l-9.248-13.7v13.7H118.47V18.72h3.2l10.772,16.006L143.154,18.72h2.939v19.6Z" transform="translate(322.466 30.137)" fill="#fff" fill-rule="evenodd"/>
    <path id="Path_3" data-name="Path 3" d="M202.575,38.317v-16.7h-9.5V18.72h22.187v2.893h-9.247v16.7Z" transform="translate(316.372 30.137)" fill="#fff" fill-rule="evenodd"/>
    <path id="Path_4" data-name="Path 4" d="M246.246,38.317l-4.252-8.742h-9.56v8.742H229V18.72h15.409a8.752,8.752,0,0,1,2.626.349,4.518,4.518,0,0,1,1.763.973,3.545,3.545,0,0,1,.992,1.488,5.51,5.51,0,0,1,.312,1.919v1.4A4.895,4.895,0,0,1,249.075,28a4.913,4.913,0,0,1-3.453,1.515l4.27,8.8Zm.441-14.9c0-1.2-.762-1.837-2.268-1.837H232.48v5.069h11.938c1.506,0,2.268-.606,2.268-1.837Z" transform="translate(313.438 30.138)" fill="#fff" fill-rule="evenodd"/>
    <rect id="Rectangle_30" data-name="Rectangle 30" width="3.425" height="19.597" transform="translate(574.965 48.857)" fill="#fff"/>
    <g id="Group_1" data-name="Group 1" transform="translate(337 35)" clip-path="url(#clip-path)">
      <rect id="Rectangle_31" data-name="Rectangle 31" width="58.093" height="60.536" transform="matrix(0.875, -0.485, 0.485, 0.875, -19.83, 11.037)" fill="#fff"/>
    </g>
    <g id="Group_2" data-name="Group 2" transform="translate(480.433 48.857)" clip-path="url(#clip-path-2)">
      <rect id="Rectangle_32" data-name="Rectangle 32" width="18.651" height="19.588" fill="#fff"/>
    </g>
    <path id="Path_7" data-name="Path 7" d="M69.221,63.145a2.755,2.755,0,0,1-2.36-1.231V62.98H65.3V53.53h1.561v3.756A2.755,2.755,0,0,1,69.185,56a3.021,3.021,0,0,1,2.268.964,3.554,3.554,0,0,1,.918,2.608,3.508,3.508,0,0,1-.918,2.58A3.021,3.021,0,0,1,69.221,63.145Zm-.367-1.359a1.837,1.837,0,0,0,1.4-.606,2.3,2.3,0,0,0,.56-1.607A2.213,2.213,0,0,0,70.241,58a1.837,1.837,0,0,0-1.387-.615,1.883,1.883,0,0,0-1.405.624,2.2,2.2,0,0,0-.588,1.561,2.149,2.149,0,0,0,.588,1.57,1.837,1.837,0,0,0,1.405.615Z" transform="translate(326.808 27.294)" fill="#fff" opacity="0.238"/>
    <path id="Path_8" data-name="Path 8" d="M76.488,65.324a3.242,3.242,0,0,1-1.616-.422l.523-1.157a2.02,2.02,0,0,0,.918.257.918.918,0,0,0,.56-.174,1.616,1.616,0,0,0,.413-.615L74.44,56.38h1.671l1.938,5.069,1.772-5.069h1.635L78.7,63.405a3.793,3.793,0,0,1-.918,1.478A1.956,1.956,0,0,1,76.488,65.324Z" transform="translate(326.062 27.061)" fill="#fff" opacity="0.238"/>
    <path id="Path_9" data-name="Path 9" d="M93.591,63.167a4.426,4.426,0,0,1-3.288-1.35,4.876,4.876,0,0,1,0-6.658A4.472,4.472,0,0,1,93.655,53.8a5,5,0,0,1,2,.358A5.381,5.381,0,0,1,97.209,55.2l-1.047,1.166a3.728,3.728,0,0,0-2.571-1.12,2.755,2.755,0,0,0-2.14.918,3.5,3.5,0,0,0,0,4.592,2.755,2.755,0,0,0,2.131.918,3.1,3.1,0,0,0,1.368-.294,4.8,4.8,0,0,0,1.231-.918l1.084,1.084a5.556,5.556,0,0,1-1.625,1.2,4.8,4.8,0,0,1-2.048.413Z" transform="translate(324.874 27.272)" fill="#fff" opacity="0.238"/>
    <path id="Path_10" data-name="Path 10" d="M100.32,63.2V56.368h1.543v1.543a2.342,2.342,0,0,1,2.415-1.671v1.616h-.092a2.158,2.158,0,0,0-1.69.7,2.874,2.874,0,0,0-.634,2.057v2.6Z" transform="translate(323.948 27.073)" fill="#fff" opacity="0.238"/>
    <path id="Path_11" data-name="Path 11" d="M108.2,65.324a3.269,3.269,0,0,1-1.616-.422l.533-1.157a2.02,2.02,0,0,0,.918.257.918.918,0,0,0,.56-.174,1.616,1.616,0,0,0,.413-.615L106.16,56.38h1.69l1.938,5.069,1.736-5.069h1.625l-2.755,7.025a3.673,3.673,0,0,1-.918,1.478A1.938,1.938,0,0,1,108.2,65.324Z" transform="translate(323.471 27.061)" fill="#fff" opacity="0.238"/>
    <path id="Path_12" data-name="Path 12" d="M116,65.265v-8.9h1.561v1.139a2.755,2.755,0,0,1,2.314-1.286,3.021,3.021,0,0,1,2.241.964,3.554,3.554,0,0,1,.918,2.608,3.508,3.508,0,0,1-.918,2.58,3.021,3.021,0,0,1-2.241.918,2.755,2.755,0,0,1-2.314-1.2V65.22Zm3.517-3.288a1.837,1.837,0,0,0,1.387-.606,2.259,2.259,0,0,0,.569-1.607,2.213,2.213,0,0,0-.569-1.57,1.837,1.837,0,0,0-1.387-.615,1.883,1.883,0,0,0-1.405.624,2.2,2.2,0,0,0-.588,1.589,2.149,2.149,0,0,0,.588,1.57,1.837,1.837,0,0,0,1.387.615Z" transform="translate(322.667 27.075)" fill="#fff" opacity="0.238"/>
    <path id="Path_13" data-name="Path 13" d="M128.378,63.214a1.754,1.754,0,0,1-1.965-2.011V57.557h-.863V56.217h.863V54.38h1.561v1.837h1.837v1.341h-1.837v3.352a.753.753,0,0,0,.845.854,2.14,2.14,0,0,0,.973-.23V62.81a2.755,2.755,0,0,1-1.414.4Z" transform="translate(321.887 27.225)" fill="#fff" opacity="0.238"/>
    <path id="Path_14" data-name="Path 14" d="M135.677,63.366a3.517,3.517,0,0,1-2.59-1.038,3.581,3.581,0,0,1,0-5.051,3.765,3.765,0,0,1,5.2,0,3.581,3.581,0,0,1,0,5.051,3.545,3.545,0,0,1-2.608,1.038Zm0-1.359a1.919,1.919,0,0,0,1.5-.634,2.277,2.277,0,0,0,.569-1.57,2.2,2.2,0,0,0-.6-1.552,1.947,1.947,0,0,0-1.5-.643,1.9,1.9,0,0,0-1.488.634,2.231,2.231,0,0,0-.569,1.561,2.176,2.176,0,0,0,.6,1.552,1.938,1.938,0,0,0,1.488.643Z" transform="translate(321.357 27.073)" fill="#fff" opacity="0.238"/>
    <path id="Path_15" data-name="Path 15" d="M147.54,63.017V54h4.1a3.214,3.214,0,0,1,2.369.8,2.066,2.066,0,0,1,.606,1.524,2.167,2.167,0,0,1-1.286,2.02,2.259,2.259,0,0,1,1.791,2.222A2.131,2.131,0,0,1,154.2,62.4a4.151,4.151,0,0,1-2.452.652Zm1.561-5.244h2.176a2.167,2.167,0,0,0,1.249-.312,1.074,1.074,0,0,0,.459-.918,1,1,0,0,0-.413-.854,1.965,1.965,0,0,0-1.175-.3h-2.3Zm0,3.829h2.645a2.167,2.167,0,0,0,1.286-.321,1.084,1.084,0,0,0,.459-.918c0-.808-.624-1.212-1.837-1.212h-2.525Z" transform="translate(320.091 27.257)" fill="#fff" opacity="0.238"/>
    <path id="Path_16" data-name="Path 16" d="M158.23,63.2V56.368h1.57v1.543a2.342,2.342,0,0,1,2.415-1.671v1.616h-.092a2.158,2.158,0,0,0-1.69.7,2.874,2.874,0,0,0-.634,2.011v2.6Z" transform="translate(319.218 27.073)" fill="#fff" opacity="0.238"/>
    <path id="Path_17" data-name="Path 17" d="M164.8,55.108V53.62h1.681v1.488Zm.064,7.879V56.155h1.561v6.832Z" transform="translate(318.681 27.287)" fill="#fff" opacity="0.238"/>
    <path id="Path_18" data-name="Path 18" d="M172.618,63.365a3.4,3.4,0,0,1-2.507-1,3.48,3.48,0,0,1-1-2.571,3.591,3.591,0,0,1,.918-2.525,3.1,3.1,0,0,1,2.4-1.038,2.948,2.948,0,0,1,2.406,1.056,4,4,0,0,1,.863,2.626,2.6,2.6,0,0,1,0,.432H170.68a2.02,2.02,0,0,0,.652,1.276,1.91,1.91,0,0,0,1.313.459,2.6,2.6,0,0,0,1.837-.808l.918.808A3.444,3.444,0,0,1,172.618,63.365Zm-1.956-4.05h3.508a2.186,2.186,0,0,0-.533-1.295,1.524,1.524,0,0,0-1.2-.505,1.57,1.57,0,0,0-1.185.5,2.259,2.259,0,0,0-.588,1.295Z" transform="translate(318.33 27.074)" fill="#fff" opacity="0.238"/>
    <path id="Path_19" data-name="Path 19" d="M179.053,62.973v-5.51h-.863V56.177h.863V55.69a2.287,2.287,0,0,1,.56-1.7,2.085,2.085,0,0,1,1.534-.542,4.151,4.151,0,0,1,1.267.184v1.313a2.948,2.948,0,0,0-.918-.165c-.6,0-.918.349-.918,1.038V56.2h1.837v1.286h-1.791v5.51Zm4.537-7.879V53.606h1.69v1.488Zm.073,7.879V56.14h1.561v6.832Z" transform="translate(317.588 27.301)" fill="#fff" opacity="0.238"/>
    <path id="Path_20" data-name="Path 20" d="M188.8,63.2V56.366h1.561v1.056a2.479,2.479,0,0,1,2.131-1.2,2.287,2.287,0,0,1,1.837.716,2.755,2.755,0,0,1,.643,1.91V63.2H193.41V59.314a1.781,1.781,0,0,0-.386-1.231,1.341,1.341,0,0,0-1.074-.441,1.442,1.442,0,0,0-1.111.459,1.7,1.7,0,0,0-.432,1.24V63.2Z" transform="translate(316.721 27.075)" fill="#fff" opacity="0.238"/>
    <path id="Path_21" data-name="Path 21" d="M201.258,65.288a5.73,5.73,0,0,1-3.058-.817l.588-1.175a4.5,4.5,0,0,0,2.434.725,2.231,2.231,0,0,0,1.607-.533,2.085,2.085,0,0,0,.551-1.561v-.533a2.939,2.939,0,0,1-2.406,1.258,3.049,3.049,0,0,1-2.186-.918,3.185,3.185,0,1,1,4.592-4.39v-.983h1.561V61.8a3.481,3.481,0,0,1-.863,2.571A3.82,3.82,0,0,1,201.258,65.288Zm.129-3.958A2.011,2.011,0,0,0,202.8,60.8a1.772,1.772,0,0,0,.6-1.368,1.745,1.745,0,0,0-.6-1.359,2.011,2.011,0,0,0-1.414-.533,1.956,1.956,0,0,0-1.387.523,1.837,1.837,0,0,0-.551,1.377,1.772,1.772,0,0,0,.56,1.359,1.919,1.919,0,0,0,1.377.533Z" transform="translate(315.981 27.079)" fill="#fff" opacity="0.238"/>
  </g>
</svg>
